<svg width="378" height="166" viewBox="0 0 378 166" fill="none" xmlns="http://www.w3.org/2000/svg">
<g clip-path="url(#clip0_2178_90)">
<path d="M274.407 6.18949L271.431 6.19527L228.586 50.186L231.562 50.1802L274.407 6.18949ZM288.168 6.09123L285.192 6.09701L242.347 50.0877L245.323 50.082L288.168 6.09123ZM233.288 6.3734L230.312 6.37919L187.467 50.3699L190.443 50.3641L233.288 6.3734ZM301.766 6.10383L298.79 6.10962L255.945 50.1003L258.921 50.0946L301.766 6.10383ZM247.049 6.27515L244.073 6.28093L201.228 50.2716L204.204 50.2659L247.049 6.27515ZM260.673 6.15114L257.696 6.15692L214.851 50.1476L217.828 50.1419L260.673 6.15114ZM349.064 41.5958L349.082 38.4874L338.183 49.7325L341.159 49.7267L349.064 41.5958ZM310.687 49.7924L313.663 49.7866L348.928 13.7051L348.947 10.5967L310.687 49.7924ZM342.885 5.91992L339.909 5.9257L297.064 49.9164L300.04 49.9106L342.885 5.91992ZM329.287 5.90731L326.311 5.91309L283.466 49.9038L286.442 49.898L329.287 5.90731ZM349.009 27.5821L349.027 24.4737L324.448 49.6942L327.424 49.6884L349.009 27.5821ZM315.526 6.00558L312.55 6.01135L269.705 50.0021L272.681 49.9963L315.526 6.00558ZM68.8383 6.97247L65.8621 6.97824L57.957 15.1092L57.9388 18.2176L68.8383 6.97247ZM219.554 6.33506L216.577 6.34084L173.732 50.3316L176.709 50.3258L219.554 6.33506ZM123.718 6.69028L120.742 6.69607L77.8965 50.6868L80.8727 50.681L123.718 6.69028ZM137.453 6.72863L134.476 6.73442L91.6313 50.7251L94.6075 50.7194L137.453 6.72863ZM96.3335 6.91256L93.3574 6.91833L58.0924 42.9998L58.0742 46.1082L96.3335 6.91256ZM82.5987 6.8742L79.6226 6.87998L58.0375 28.9862L58.0193 32.0946L82.5987 6.8742ZM64.136 50.7851L67.1122 50.7793L109.957 6.78855L106.981 6.79433L64.136 50.7851ZM205.93 6.45906L202.954 6.46485L160.109 50.4556L163.085 50.4498L205.93 6.45906ZM192.195 6.42071L189.219 6.4265L146.374 50.4172L149.35 50.4114L192.195 6.42071ZM178.571 6.54472L175.595 6.5505L132.75 50.5412L135.726 50.5354L178.571 6.54472ZM164.811 6.64298L161.835 6.64876L118.99 50.6395L121.966 50.6337L164.811 6.64298ZM108.231 50.5954L105.255 50.6011L148.1 6.61041L151.076 6.60463L108.231 50.5954Z" fill="#FFED00"/>
<path fill-rule="evenodd" clip-rule="evenodd" d="M254.904 42.8313L213.408 45.7732L179.629 40.8315L175.987 11.9983L132.271 4.90404L123.901 45.6219L70.4403 48.1513L63.7246 6.29224L12.0934 11.1461L16.804 63.6608L2.57088 70.0353L8.65945 95.6513L16.6824 92.9175L16.696 126.726L125.454 126.963L125.348 159.901L206.5 160.036L208.872 127.101L259.851 127.216L286.47 140.853L291.306 127.194L315.937 127.302L315.216 156.729L331.969 160.306L364.366 156.783L357.379 84.7449L354.128 38.0215L302.524 38.2128L290.45 35.375L261.997 35.2547L254.545 42.4808L254.904 42.8313Z" fill="#1D1D1B"/>
<path d="M332.233 161.912L313.975 158.053L314.644 128.899L292.691 128.87L287.589 143.186L259.816 128.908L210.667 128.854L208.295 161.789L124.167 161.66L124.273 128.722L15.5148 128.485L15.5352 95.2486L7.97418 97.7864L1.14258 69.343L15.5382 62.8577L10.7679 9.90743L65.4267 4.77453L72.2792 46.6593L123.148 44.3495L131.57 3.35848L177.911 10.8053L181.553 39.6385L213.964 44.3227L254.725 41.5253L262.202 34.1625L291.639 34.3265L303.44 37.1128L356.326 36.88L359.593 85.021L366.708 158.639L332.592 162.263L332.233 161.912ZM317.141 155.536L332.388 158.83L363.04 155.545L356.207 84.9496L353.11 39.6695L302.763 39.9559L290.688 37.118L263.082 37.0156L255.767 44.2675L213.561 47.2173L178.388 42.1548L174.772 13.185L133.519 6.55411L125.2 46.9987L69.1737 49.6112L62.4324 7.88872L13.6918 12.4379L18.4796 64.5427L4.38329 70.9429L9.86565 93.7574L18.3248 90.9643L18.2098 125.456L126.968 125.693L126.862 158.631L205.037 158.771L207.41 125.836L260.219 126.013L285.521 139.119L290.229 126.143L317.562 126.194L316.927 155.92L317.141 155.536Z" fill="#FFED00"/>
<path d="M204.616 94.7571C204.616 94.7571 205.42 95.757 205.779 96.1075L206.052 96.159C203.804 93.0485 201.556 89.9379 199.445 86.8532C199.445 86.8532 199.419 86.9898 199.257 87.1006L199.393 87.1264L199.949 87.9382C200.838 89.237 201.727 90.5359 202.812 92.2961C203.035 92.6208 203.59 93.4326 204.505 94.5948L204.616 94.7571ZM218.91 109.894C217.696 108.817 216.345 107.714 215.157 106.5L214.336 106.346L214.421 106.645L214.096 106.867C215.148 108.055 216.199 109.243 217.225 110.567C218.858 112.43 220.49 114.294 222.123 116.157L221.747 116.652C220.225 114.951 218.592 113.088 217.071 111.387L214.856 108.849C216.053 110.771 216.78 112.181 216.429 112.539C216.052 113.034 214.65 112.204 211.726 109.674C210.76 108.785 209.794 107.896 208.965 107.033L196.658 107.687L188.892 109.055L180.673 109.064C180.673 109.064 180.297 109.559 180.271 109.696C180.245 109.833 180.057 110.08 179.895 110.191C179.869 110.328 180.177 110.951 180.04 110.926C180.04 110.926 179.493 110.823 179.356 110.797C179.33 110.933 179.031 111.019 178.979 111.292C178.954 111.428 178.791 111.539 178.628 111.65C178.628 111.65 178.577 111.923 178.278 112.008C178.252 112.145 177.841 112.068 177.73 111.905C177.457 111.854 177.098 111.504 176.773 111.725C176.011 112.006 176.448 111.947 175.327 111.878C175.113 112.262 174.874 112.782 174.66 113.166C174.66 113.166 174.531 113.85 174.557 113.713C174.42 113.687 174.18 114.208 174.18 114.208C174.155 114.344 174.129 114.481 174.103 114.618L173.675 115.386C173.701 115.249 173.65 115.522 173.513 115.497C173.513 115.497 173.487 115.633 173.461 115.77C173.461 115.77 176.164 115.713 176.061 116.259C172.555 115.317 173.162 115.855 173.564 115.224L173.616 114.95C173.641 114.814 173.915 114.865 173.83 114.566C173.83 114.566 173.83 114.566 173.855 114.43C174.044 114.182 173.855 114.43 174.18 114.208C174.18 114.208 174.206 114.071 174.232 113.935C174.232 113.935 174.232 113.935 174.258 113.798C174.283 113.661 174.634 113.303 174.66 113.166C174.685 113.03 174.592 112.022 174.865 112.074C174.891 111.937 174.942 111.664 174.669 111.612C174.361 110.989 174.464 110.442 173.994 109.929C173.994 109.929 173.994 109.929 174.045 109.656L166.545 110.366C166.545 110.366 165.587 110.186 165.228 109.836C164.869 109.485 164.672 109.024 164.749 108.614L165.301 97.4022L165.4 59.23C165.4 59.23 165.554 58.4103 165.905 58.052C166.256 57.6937 166.692 57.6343 167.128 57.5749L170.874 57.9968C170.07 56.9969 169.13 55.9713 168.352 54.8348C167.189 53.4845 166.711 52.2629 167.164 51.3581C167.481 50.4276 168.781 49.5406 170.706 48.3469L170.843 48.3726C173.93 48.5292 176.316 49.4024 178.163 50.8815C179.479 51.4122 179.975 51.7884 180.087 51.9508C180.035 52.224 180.009 52.3606 179.984 52.4972C181.531 54.0614 182.865 56.0097 184.035 58.0688C184.369 58.5559 184.702 59.0429 185.036 59.53L213.359 62.5964C213.411 62.3232 213.573 62.2123 213.736 62.1014C214.061 61.8797 214.523 61.6837 214.873 61.3254C214.899 61.1888 214.925 61.0522 214.951 60.9155C214.651 61.0007 214.326 61.2224 213.864 61.4184C213.89 61.2818 214.215 61.06 214.241 60.9234L214.104 60.8977C214.104 60.8977 213.967 60.8719 214.155 60.6245C214.506 60.2661 214.429 60.6759 214.429 60.6759C214.754 60.4542 215.216 60.2582 215.515 60.1731C215.541 60.0365 215.729 59.789 215.892 59.6782C216.08 59.4307 216.431 59.0724 216.619 58.8249C216.67 58.5517 216.995 58.3299 217.047 58.0567C217.073 57.9201 217.398 57.6984 217.423 57.5618C217.475 57.2885 217.637 57.1777 217.826 56.9302C217.851 56.7936 217.432 56.0075 217.432 56.0075C217.432 56.0075 218.228 56.2986 218.39 56.1878C218.442 55.9145 218.741 55.8294 218.767 55.6928C218.818 55.4196 219.092 55.4711 219.143 55.1979C219.169 55.0613 219.494 54.8395 219.52 54.7029C219.545 54.5663 219.956 54.6435 220.204 54.8316C220.452 55.0197 221.084 55.4217 221.521 55.3623C222.419 55.107 221.983 55.1663 223.351 55.4238C223.727 54.9288 223.967 54.4081 224.318 54.0498C224.318 54.0498 224.335 53.2044 224.472 53.2301C224.746 53.2816 225.524 52.1551 225.687 52.0443L225.712 51.9076C225.738 51.771 225.764 51.6344 225.926 51.5236C225.926 51.5236 225.952 51.387 225.978 51.2503C225.978 51.2503 226.44 51.0544 226.251 51.3018L225.849 51.9334L225.772 52.3432C225.721 52.6165 225.31 52.5392 225.421 52.7016C225.421 52.7016 225.233 52.949 224.908 53.1708C224.882 53.3074 224.857 53.444 224.694 53.5549C224.694 53.5549 224.694 53.5549 224.668 53.6915C224.643 53.8281 224.643 53.8281 224.617 53.9647C224.617 53.9647 224.429 54.2122 224.292 54.1864C224.292 54.1864 224.292 54.1864 224.266 54.323C224.241 54.4596 224.283 55.7406 224.009 55.6891C224.035 55.5525 223.787 55.3644 223.676 55.2021C223.65 55.3387 223.624 55.4753 223.599 55.6119L224.009 55.6891C224.009 55.6891 223.71 55.7743 223.795 56.0732C223.77 56.2098 223.744 56.3464 223.718 56.4831L223.735 57.9007C223.735 57.9007 223.033 58.6173 223.144 58.7797C223.255 58.942 222.716 59.5479 222.528 59.7953C222.314 60.1794 221.989 60.4011 221.912 60.811C221.861 61.0842 221.185 61.6643 220.834 62.0226C220.295 62.6284 219.919 63.1234 219.38 63.7292L227.17 64.4879C227.991 64.6424 228.573 65.3176 228.555 66.163L228.516 104.771C228.498 105.616 227.797 106.333 226.924 106.452L220.895 106.873L221.724 107.736L221.374 108.095L222.87 109.932L222.493 110.427C222.023 109.914 221.442 109.239 220.86 108.564C220.527 108.077 220.057 107.564 219.586 107.051L219.45 107.025C220.39 108.051 221.194 109.051 222.134 110.076C224.348 112.615 226.699 115.179 228.665 117.529L228.289 118.024C226.656 116.161 225.16 114.323 223.501 112.597L223.014 112.93C221.851 111.579 220.689 110.229 219.389 108.853C220.116 110.262 220.509 111.185 220.32 111.433C219.97 111.791 219.422 111.688 218.319 110.773L218.371 110.5L218.91 109.894ZM193.917 71.8097L195.806 74.5698L197.336 76.9794C197.336 76.9794 198.362 78.304 198.806 78.9534C199.234 78.1852 199.662 77.4171 200.09 76.6489C200.09 76.6489 200.09 76.6489 200.116 76.5123C200.167 76.2391 200.466 76.1539 200.629 76.0431L200.603 76.1797C200.629 76.0431 200.655 75.9065 200.68 75.7698L200.543 75.7441C200.543 75.7441 200.543 75.7441 200.381 75.855C200.381 75.855 200.458 75.4451 200.595 75.4709C200.595 75.4709 200.621 75.3343 200.757 75.36C200.834 74.9502 201.134 74.8651 201.485 74.5067C201.485 74.5067 201.51 74.3701 201.536 74.2335L201.485 74.5067C201.485 74.5067 201.673 74.2593 201.835 74.1484C201.861 74.0118 202.4 73.406 202.588 73.1585C202.777 72.911 203.837 72.5448 203.7 72.519L203.974 72.5705L193.37 71.7067L193.917 71.8097ZM209.987 94.0704C209.987 94.0704 210.679 94.9079 211.013 95.395L211.15 95.4208C211.15 95.4208 210.346 94.4209 210.013 93.9338L209.987 94.0704ZM185.653 77.3272C184.517 75.8403 183.516 74.3791 182.542 72.7812C182.098 72.1318 181.542 71.32 181.098 70.6706L179.592 70.3874L178.13 71.3852L178.052 97.3969C178.052 97.3969 178.026 97.5335 178.137 97.6959C178.137 97.6959 178.411 97.7473 178.548 97.7731L182.995 97.4783C182.995 97.4783 183.346 97.12 183.508 97.0091C183.697 96.7616 183.996 96.6765 184.321 96.4548C184.509 96.2073 184.698 95.9599 184.886 95.7124C184.886 95.7124 185.45 94.97 185.776 94.7482C185.827 94.475 186.477 94.0315 186.477 94.0315C186.854 93.5366 187.393 92.9308 187.906 92.4616C187.906 92.4616 188.146 91.9409 188.334 91.6934C189.249 90.5926 190.19 89.3552 191.106 88.2545C191.457 87.8961 192.346 86.932 192.346 86.932L192.398 86.6588C190.287 83.574 188.038 80.4635 185.816 77.2164L185.653 77.3272ZM211.38 73.1154C210.627 74.1053 209.9 74.9586 209.198 75.6753C208.847 76.0336 208.172 76.6137 208.172 76.6137C208.146 76.7503 208.12 76.8869 207.958 76.9978C207.581 77.4927 207.094 77.8253 206.58 78.2945C206.58 78.2945 205.904 78.8746 205.853 79.1478C205.827 79.2844 205.776 79.5576 205.613 79.6685C204.86 80.6584 204.886 80.5218 203.86 81.4602C203.509 81.8185 203.295 82.2026 202.944 82.561L202.807 82.5352L202.379 83.3034L202.85 83.8162C205.927 87.79 209.056 91.4906 212.569 95.405L217.504 94.7776L217.563 74.1373C217.563 74.1373 217.366 73.676 217.229 73.6503L211.654 73.1669L211.38 73.1154ZM200.083 97.0159C198.587 95.1785 197.116 93.2045 195.62 91.3671C195.347 91.3156 194.833 91.7848 194.645 92.0323C193.781 92.8598 192.729 93.9349 192.002 94.7882C191.274 95.6414 190.821 96.5462 190.119 97.2629L198.141 96.7921L199.27 97.5703L200.194 97.1783L200.083 97.0159ZM176.763 115.542L176.737 115.679C176.737 115.679 176.737 115.679 176.763 115.542C176.763 115.542 176.763 115.542 176.9 115.568L176.763 115.542ZM173.402 115.334C173.402 115.334 173.402 115.334 173.427 115.198L173.376 115.471L173.402 115.334ZM227.038 50.8841C227.175 50.9099 227.013 51.0207 227.038 50.8841ZM174 115.164C174 115.164 174.052 114.891 174.078 114.754C174.052 114.891 174.052 114.891 174.163 115.053C174.163 115.053 174.112 115.327 174.137 115.19L174 115.164ZM227.15 51.0465C227.15 51.0465 227.098 51.3197 227.124 51.1831L227.15 51.0465C227.15 51.0465 227.175 50.9099 227.286 51.0722L227.15 51.0465ZM181.96 146.649C183.953 146.599 191.025 146.657 192.736 145.847C193.523 145.43 193.986 142.971 194.191 141.878C195.126 135.406 194.594 138.983 194.408 132.442C194.511 131.895 194.563 129.359 194.23 128.872C193.948 128.112 192.392 128.102 191.63 128.383C180.042 129.738 168.342 130.932 156.479 132.236L163.122 20.8934C163.139 20.048 163.729 19.1689 163.396 18.6819C162.977 17.8958 161.036 17.672 160.052 17.6284C151.885 17.3646 151.996 17.527 143.778 17.5365C135.559 17.5459 142.469 17.7146 142.229 18.2353C141.802 19.0034 142.16 21.6169 142.279 22.4881C143.234 31.7203 141.24 129.651 141.186 138.976C141.253 142.384 140.114 145.423 144.211 145.486C156.774 145.729 169.482 146.705 181.96 146.649ZM287.454 43.0153L271.726 43.0264C271.726 43.0264 271.401 43.2481 271.239 43.359L266.605 86.0529C266.605 86.0529 266.177 86.8211 265.904 86.7696C265.493 86.6924 265.083 86.6151 265.16 86.2053L257.073 53.1408C257.073 53.1408 256.851 52.8161 256.714 52.7904L239.353 53.2012C239.353 53.2012 239.028 53.423 238.865 53.5338L233.397 111.206C233.397 111.206 233.345 111.479 233.482 111.505C233.482 111.505 233.619 111.53 233.756 111.556L248.637 111.527C248.637 111.527 248.962 111.305 249.124 111.195L253.103 82.5221C253.103 82.5221 253.154 82.2488 253.453 82.1637C253.59 82.1895 253.727 82.2152 253.864 82.241L280.2 118.456C280.2 118.456 281.329 119.235 281.928 119.064C282.526 118.894 283.065 118.288 283.057 117.579L287.839 43.2292C287.839 43.2292 287.864 43.0926 287.753 42.9302C287.616 42.9045 287.616 42.9045 287.48 42.8787L287.454 43.0153ZM296.613 116.311L332.843 106.721L332.306 149.478L351.669 147.464L348.066 58.9467L292.391 58.9378C292.391 58.9378 291.604 59.3555 291.527 59.7654L290.97 112.42C290.917 114.957 294.902 117.121 296.476 116.285L296.613 116.311ZM303.734 76.207L332.068 75.4561L332.387 91.0754L304.257 97.5224L303.597 76.1812L303.734 76.207Z" fill="white"/>
<path fill-rule="evenodd" clip-rule="evenodd" d="M30.5551 111.795L30.6502 84.938C27.3913 86.4465 20.6769 89.0021 19.8907 87.1569C19.1046 85.3116 16.1491 75.4199 14.7824 70.6364L28.4757 67.1308L28.5093 21.0252L50.1982 19.4484L50.1148 61.3012L85.4987 51.6927L91.3639 55.9082L91.2841 112.048L30.6662 111.957L30.5551 111.795ZM97.4788 55.7858L92.8671 109.658L133.088 109.73L133.077 92.4709L106.506 89.8759L121.44 85.0478L106.556 70.7898L130.912 73.1096L133.167 55.853L97.4788 55.7858ZM49.5852 83.6917L76.5455 72.9225L76.5208 94.135L49.6242 94.0247L49.6109 83.555L49.5852 83.6917Z" fill="#FFED00"/>
<path d="M107.267 140.798C109.123 140.723 110.687 141.442 111.739 142.63C112.927 143.843 113.465 145.501 113.516 147.49L113.47 157.524L109.921 157.564L109.89 147.94C109.847 146.659 109.591 145.762 108.847 145.197C108.266 144.522 107.334 144.205 106.188 144.273C104.905 144.314 103.845 144.68 103.117 145.534C102.39 146.387 102.048 147.454 102.038 149.008L102.087 157.787L98.5375 157.827L98.4834 141.55L102.033 141.511L102.058 143.637C103.076 141.99 104.787 141.18 107.053 141.182L107.267 140.798Z" fill="#FFED00"/>
<path d="M91.5728 143.645L91.5993 141.245L95.0116 141.18L95.0574 156.748C95.0309 159.148 94.2348 161.119 92.5581 162.501C90.9071 163.747 88.9227 164.505 86.6564 164.503C82.8335 164.491 80.3624 163.318 78.9095 160.499L81.9205 158.802C82.7323 160.511 84.434 161.256 86.7003 161.258C88.2568 161.268 89.4542 160.927 90.1814 160.074C91.0455 159.246 91.5248 158.205 91.5082 156.787L91.4576 154.798C90.1142 156.666 88.241 157.587 85.8121 157.696C83.5458 157.694 81.5705 156.898 80.0488 155.197C78.5272 153.496 77.6299 151.488 77.6307 149.225C77.6572 146.826 78.4533 144.854 80.0189 143.31C81.6102 141.629 83.5946 140.871 85.8609 140.873C88.264 140.901 90.2393 141.697 91.5728 143.645ZM82.6153 152.851C83.5557 153.876 84.8983 154.271 86.3179 154.255C87.7376 154.239 88.9607 153.762 89.9873 152.823C91.0139 151.885 91.5189 150.707 91.528 149.153C91.5371 147.599 91.0329 146.514 90.0926 145.488C89.1522 144.462 87.8096 144.068 86.39 144.084C84.9703 144.1 83.7472 144.577 82.7206 145.515C81.694 146.454 81.3258 147.658 81.1799 149.186C81.1965 150.604 81.675 151.825 82.6153 152.851Z" fill="#FFED00"/>
<path d="M74.6329 138.053C74.6329 138.053 73.6577 138.718 73.0847 138.752C72.5117 138.785 71.9901 138.546 71.4942 138.17C71.024 137.657 70.8275 137.195 70.7935 136.623C70.7595 136.051 70.9991 135.53 71.5124 135.061C71.8889 134.566 72.4876 134.396 73.0606 134.362C73.6336 134.329 74.2921 134.594 74.6254 135.081C75.1213 135.457 75.2922 136.055 75.3262 136.627C75.3602 137.2 75.1205 137.72 74.6072 138.19L74.6329 138.053ZM74.8056 157.464L71.2564 157.503L71.2024 141.227L74.7515 141.187L74.8056 157.464Z" fill="#FFED00"/>
<path d="M59.8947 145.605C59.8947 145.605 60.151 146.502 60.6469 146.878C61.1685 147.117 61.938 147.545 62.8958 147.725C63.7167 147.88 64.2641 147.983 64.9225 148.248C65.4698 148.351 66.1025 148.753 66.7352 149.155C67.3679 149.557 67.8381 150.07 68.1458 150.693C68.4534 151.317 68.5986 152.052 68.5812 152.897C68.572 154.451 68.067 155.629 66.7668 156.516C65.6034 157.429 64.1066 157.854 62.2764 157.793C60.72 157.783 59.3517 157.526 58.0863 156.722C56.9319 156.08 56.1284 155.08 55.6242 153.995L58.6352 152.299C59.1991 153.819 60.3277 154.597 62.2947 154.685C64.2616 154.772 65.1 154.081 65.0577 152.8C65.0751 151.954 64.0833 151.202 61.9198 150.653C61.0988 150.499 60.4147 150.37 59.9188 149.994C59.3715 149.891 58.8756 149.515 58.1061 149.087C57.4734 148.685 57.0032 148.172 56.6698 147.685C56.3622 147.062 56.217 146.327 56.2087 145.618C56.2178 144.064 56.7228 142.886 57.8863 141.973C59.0497 141.061 60.4096 140.609 62.103 140.645C63.3858 140.604 64.5915 140.972 65.609 141.588C66.6265 142.204 67.4815 142.93 68.1225 144.041L65.1115 145.738C64.633 144.516 63.4787 143.874 62.059 143.89C61.3749 143.761 60.7505 144.068 60.2629 144.401C59.7753 144.734 59.5614 145.118 59.5954 145.69L59.8947 145.605Z" fill="#FFED00"/>
<path d="M54.5406 147.709L42.4718 152.369C43.1385 153.343 43.9934 154.07 45.0623 154.413C46.1569 154.619 47.4398 154.577 48.6629 154.1C50.3479 153.427 51.4003 152.352 51.8455 150.738L55.1294 151.356C54.6152 154.089 52.6989 155.991 49.7907 157.141C47.3445 158.095 45.0781 158.093 42.9917 157.135C40.9054 156.177 39.358 154.612 38.5121 152.332C37.6663 150.051 37.6414 147.924 38.6 145.841C39.4217 143.733 41.1241 142.214 43.4079 141.371C45.5548 140.502 47.7954 140.641 49.745 141.573C51.8314 142.532 53.2162 144.207 54.0621 146.488C54.2586 146.949 54.3183 147.385 54.5148 147.846L54.5406 147.709ZM41.2668 149.738L50.265 146.339C49.6239 145.228 48.769 144.502 47.7001 144.159C46.6312 143.816 45.6477 143.773 44.5614 144.276C43.3382 144.753 42.4999 145.444 41.8838 146.459C41.2676 147.475 41.1988 148.594 41.2668 149.738Z" fill="#FFED00"/>
<path d="M31.5273 143.521L31.4792 134.742L35.0283 134.703L34.9946 157.469L31.4454 157.509L31.4719 155.109C30.1285 156.978 28.2553 157.899 25.7153 157.845C23.449 157.843 21.6105 157.073 19.952 155.346C18.4303 153.645 17.5331 151.638 17.5596 149.238C17.5861 146.838 18.3822 144.866 19.9735 143.186C21.5648 141.505 23.4123 140.721 25.6787 140.723C28.0818 140.751 30.0571 141.547 31.3905 143.495L31.5273 143.521ZM22.6553 153.026C23.5957 154.051 24.9383 154.445 26.3579 154.43C27.7776 154.414 29.0007 153.937 30.0273 152.998C31.0539 152.06 31.4478 150.72 31.4312 149.302C31.4403 147.748 30.9618 146.526 29.9958 145.637C29.0554 144.612 27.7385 144.081 26.3189 144.097C24.8992 144.112 23.6761 144.59 22.6238 145.665C21.5972 146.603 21.2033 147.943 21.2199 149.361C21.2365 150.779 21.6893 152.137 22.6296 153.162L22.6553 153.026Z" fill="#FFED00"/>
</g>
<defs>
<clipPath id="clip0_2178_90">
<rect width="378" height="166" fill="white"/>
</clipPath>
</defs>
</svg>
